<svg width="95" height="47" viewBox="0 0 95 47" fill="none" xmlns="http://www.w3.org/2000/svg">
    <path
        d="M1.11861 44V33.8182H2.65483V38.2429H7.73082V33.8182H9.27202V44H7.73082V39.5604H2.65483V44H1.11861ZM11.5092 44V33.8182H17.8928V35.1406H13.0455V38.2429H17.5597V39.5604H13.0455V42.6776H17.9524V44H11.5092ZM20.8049 44H19.1742L22.8382 33.8182H24.6131L28.2772 44H26.6465L23.7679 35.6676H23.6884L20.8049 44ZM21.0783 40.0128H26.3681V41.3054H21.0783V40.0128ZM29.7475 44V33.8182H31.2837V42.6776H35.8974V44H29.7475ZM35.8216 35.1406V33.8182H43.7015V35.1406H40.5247V44H38.9934V35.1406H35.8216ZM45.4428 44V33.8182H46.979V38.2429H52.055V33.8182H53.5962V44H52.055V39.5604H46.979V44H45.4428ZM64.2901 37.1293H62.739C62.6793 36.7978 62.5683 36.5062 62.4059 36.2543C62.2435 36.0024 62.0446 35.7886 61.8093 35.6129C61.574 35.4373 61.3105 35.3047 61.0188 35.2152C60.7305 35.1257 60.4239 35.081 60.0991 35.081C59.5124 35.081 58.9871 35.2285 58.5231 35.5234C58.0624 35.8184 57.6978 36.2509 57.4293 36.821C57.1642 37.3911 57.0316 38.0871 57.0316 38.9091C57.0316 39.7377 57.1642 40.437 57.4293 41.0071C57.6978 41.5772 58.064 42.008 58.5281 42.2997C58.9921 42.5914 59.5141 42.7372 60.0941 42.7372C60.4156 42.7372 60.7205 42.6941 61.0089 42.608C61.3005 42.5185 61.564 42.3875 61.7994 42.2152C62.0347 42.0429 62.2335 41.8324 62.396 41.5838C62.5617 41.3319 62.676 41.0436 62.739 40.7188L64.2901 40.7237C64.2073 41.2242 64.0465 41.6849 63.8079 42.1058C63.5726 42.5234 63.2693 42.8847 62.8981 43.1896C62.5302 43.4912 62.1093 43.7249 61.6353 43.8906C61.1613 44.0563 60.6443 44.1392 60.0842 44.1392C59.2025 44.1392 58.417 43.9304 57.7276 43.5128C57.0382 43.0919 56.4947 42.4903 56.0969 41.7081C55.7025 40.9259 55.5053 39.9929 55.5053 38.9091C55.5053 37.822 55.7042 36.889 56.1019 36.1101C56.4996 35.3279 57.0432 34.728 57.7326 34.3104C58.422 33.8894 59.2058 33.679 60.0842 33.679C60.6244 33.679 61.1282 33.7569 61.5955 33.9126C62.0662 34.0651 62.4888 34.2905 62.8633 34.5888C63.2378 34.8838 63.5477 35.245 63.793 35.6726C64.0382 36.0968 64.204 36.5824 64.2901 37.1293ZM66.9201 44H65.2894L68.9535 33.8182H70.7283L74.3924 44H72.7617L69.8832 35.6676H69.8036L66.9201 44ZM67.1935 40.0128H72.4833V41.3054H67.1935V40.0128ZM75.8627 44V33.8182H79.492C80.2808 33.8182 80.9354 33.9541 81.4558 34.2259C81.9795 34.4976 82.3706 34.8738 82.6291 35.3544C82.8876 35.8317 83.0169 36.3835 83.0169 37.0099C83.0169 37.633 82.8859 38.1816 82.6241 38.6555C82.3656 39.1262 81.9745 39.4924 81.4508 39.7543C80.9305 40.0161 80.2759 40.147 79.487 40.147H76.7377V38.8246H79.3478C79.845 38.8246 80.2493 38.7533 80.5609 38.6108C80.8758 38.4683 81.1061 38.2611 81.252 37.9893C81.3978 37.7176 81.4707 37.3911 81.4707 37.0099C81.4707 36.6255 81.3961 36.2924 81.247 36.0107C81.1011 35.7289 80.8708 35.5135 80.5559 35.3643C80.2444 35.2119 79.835 35.1357 79.3279 35.1357H77.399V44H75.8627ZM80.889 39.4062L83.4047 44H81.6547L79.1887 39.4062H80.889ZM84.8862 44V33.8182H91.2697V35.1406H86.4224V38.2429H90.9366V39.5604H86.4224V42.6776H91.3294V44H84.8862Z"
        fill="black" />
    <path
        d="M1.64347 29V10.0909H9.10369C10.5379 10.0909 11.7597 10.3648 12.7692 10.9126C13.7786 11.4543 14.5481 12.2083 15.0774 13.1747C15.6129 14.1349 15.8807 15.2429 15.8807 16.4986C15.8807 17.7543 15.6098 18.8622 15.0682 19.8224C14.5265 20.7827 13.7417 21.5305 12.7138 22.0661C11.692 22.6016 10.4548 22.8693 9.00213 22.8693H4.24716V19.6655H8.35582C9.12524 19.6655 9.75923 19.5331 10.2578 19.2685C10.7625 18.9976 11.138 18.6252 11.3842 18.1513C11.6366 17.6712 11.7628 17.1203 11.7628 16.4986C11.7628 15.8707 11.6366 15.3229 11.3842 14.8551C11.138 14.3812 10.7625 14.0149 10.2578 13.7564C9.75308 13.4917 9.11293 13.3594 8.33736 13.3594H5.64134V29H1.64347ZM18.6025 29V25.6761L26.3688 18.4851C27.0293 17.8459 27.5833 17.2706 28.0307 16.7592C28.4853 16.2479 28.8297 15.7472 29.0641 15.2571C29.2985 14.7599 29.4157 14.2237 29.4157 13.6484C29.4157 13.0092 29.2701 12.4588 28.9789 11.9972C28.6877 11.5284 28.29 11.1697 27.7857 10.9212C27.2814 10.6655 26.7097 10.5376 26.0705 10.5376C25.4029 10.5376 24.8205 10.6726 24.3233 10.9425C23.8262 11.2124 23.4426 11.5994 23.1728 12.1037C22.9029 12.608 22.7679 13.2081 22.7679 13.9041H18.3894C18.3894 12.4766 18.7125 11.2372 19.3588 10.1861C20.0051 9.13494 20.9107 8.32173 22.0755 7.74645C23.2402 7.17116 24.5826 6.88352 26.1025 6.88352C27.665 6.88352 29.025 7.16051 30.1827 7.71449C31.3475 8.26136 32.253 9.02131 32.8993 9.99432C33.5456 10.9673 33.8688 12.0824 33.8688 13.3395C33.8688 14.1634 33.7054 14.9766 33.3787 15.7791C33.0591 16.5817 32.4874 17.473 31.6635 18.4531C30.8397 19.4261 29.6784 20.5945 28.1799 21.9581L24.9945 25.0795V25.2287H34.1564V29H18.6025ZM44.0771 29H37.3739V10.0909H44.1325C46.0344 10.0909 47.6718 10.4695 49.0444 11.2266C50.417 11.9775 51.4727 13.0578 52.2113 14.4673C52.9561 15.8769 53.3285 17.5634 53.3285 19.527C53.3285 21.4967 52.9561 23.1894 52.2113 24.6051C51.4727 26.0208 50.4109 27.1072 49.0259 27.8643C47.6471 28.6214 45.9975 29 44.0771 29ZM41.3718 25.5746H43.9109C45.0927 25.5746 46.0868 25.3653 46.8931 24.9467C47.7056 24.522 48.315 23.8665 48.7212 22.9801C49.1336 22.0876 49.3398 20.9366 49.3398 19.527C49.3398 18.1297 49.1336 16.9879 48.7212 16.1016C48.315 15.2152 47.7087 14.5627 46.9023 14.1442C46.096 13.7256 45.1019 13.5163 43.9201 13.5163H41.3718V25.5746ZM73.6664 19.5455C73.6664 21.6075 73.2755 23.3617 72.4938 24.8082C71.7182 26.2547 70.6595 27.3596 69.3176 28.1229C67.9819 28.88 66.4801 29.2585 64.812 29.2585C63.1316 29.2585 61.6235 28.8769 60.2878 28.1136C58.9521 27.3504 57.8965 26.2455 57.1209 24.799C56.3453 23.3525 55.9576 21.6013 55.9576 19.5455C55.9576 17.4834 56.3453 15.7292 57.1209 14.2827C57.8965 12.8362 58.9521 11.7344 60.2878 10.9773C61.6235 10.214 63.1316 9.83239 64.812 9.83239C66.4801 9.83239 67.9819 10.214 69.3176 10.9773C70.6595 11.7344 71.7182 12.8362 72.4938 14.2827C73.2755 15.7292 73.6664 17.4834 73.6664 19.5455ZM69.6131 19.5455C69.6131 18.2098 69.4131 17.0833 69.013 16.1662C68.619 15.2491 68.062 14.5535 67.3418 14.0795C66.6216 13.6056 65.7784 13.3686 64.812 13.3686C63.8456 13.3686 63.0023 13.6056 62.2821 14.0795C61.562 14.5535 61.0018 15.2491 60.6017 16.1662C60.2078 17.0833 60.0108 18.2098 60.0108 19.5455C60.0108 20.8812 60.2078 22.0076 60.6017 22.9247C61.0018 23.8419 61.562 24.5374 62.2821 25.0114C63.0023 25.4853 63.8456 25.7223 64.812 25.7223C65.7784 25.7223 66.6216 25.4853 67.3418 25.0114C68.062 24.5374 68.619 23.8419 69.013 22.9247C69.4131 22.0076 69.6131 20.8812 69.6131 19.5455ZM93.3118 16.7109H89.2678C89.1939 16.1877 89.0431 15.723 88.8153 15.3168C88.5876 14.9044 88.2952 14.5535 87.9382 14.2642C87.5812 13.9749 87.1688 13.7533 86.701 13.5994C86.2393 13.4455 85.7377 13.3686 85.196 13.3686C84.2173 13.3686 83.3648 13.6117 82.6385 14.098C81.9122 14.5781 81.349 15.2798 80.9489 16.2031C80.5488 17.1203 80.3487 18.2344 80.3487 19.5455C80.3487 20.8935 80.5488 22.026 80.9489 22.9432C81.3551 23.8603 81.9214 24.5528 82.6477 25.0206C83.3741 25.4884 84.2143 25.7223 85.1683 25.7223C85.7038 25.7223 86.1993 25.6515 86.6548 25.5099C87.1165 25.3684 87.5258 25.1622 87.8828 24.8913C88.2398 24.6143 88.5353 24.2789 88.7692 23.8849C89.0092 23.491 89.1754 23.0417 89.2678 22.5369L93.3118 22.5554C93.2072 23.4233 92.9456 24.2604 92.527 25.0668C92.1146 25.867 91.5575 26.584 90.8558 27.218C90.1603 27.8459 89.3293 28.3445 88.3629 28.7138C87.4027 29.0769 86.3163 29.2585 85.1037 29.2585C83.4171 29.2585 81.9091 28.8769 80.5795 28.1136C79.2562 27.3504 78.2098 26.2455 77.4403 24.799C76.6771 23.3525 76.2955 21.6013 76.2955 19.5455C76.2955 17.4834 76.6832 15.7292 77.4588 14.2827C78.2344 12.8362 79.2869 11.7344 80.6165 10.9773C81.946 10.214 83.4418 9.83239 85.1037 9.83239C86.1993 9.83239 87.215 9.98627 88.1506 10.294C89.0923 10.6018 89.9264 11.0511 90.6527 11.642C91.379 12.2268 91.9699 12.9439 92.4254 13.7933C92.8871 14.6428 93.1825 15.6153 93.3118 16.7109Z"
        fill="black" />
</svg>